<svg width="25" height="14" viewBox="0 0 25 14" fill="none" xmlns="http://www.w3.org/2000/svg">
<path d="M12.4291 10.8769L2.46068 1.18163C2.38034 1.10181 2.28497 1.0387 2.18007 0.995964C2.07518 0.953226 1.96284 0.931703 1.84957 0.932644C1.7363 0.933584 1.62434 0.956969 1.52017 1.00144C1.416 1.04592 1.32169 1.1106 1.24269 1.19174C1.1637 1.27289 1.10159 1.36889 1.05996 1.47418C1.01832 1.57948 0.997999 1.69199 1.00016 1.80519C1.00231 1.91839 1.02691 2.03003 1.07252 2.13367C1.11813 2.23731 1.18385 2.33087 1.26588 2.40895L11.8317 12.6842C11.9917 12.8397 12.206 12.9268 12.4291 12.9268C12.6523 12.9268 12.8666 12.8397 13.0265 12.6842L23.5924 2.40895C23.6744 2.33087 23.7401 2.23731 23.7857 2.13367C23.8313 2.03003 23.8559 1.91839 23.8581 1.80519C23.8602 1.69199 23.8399 1.57948 23.7983 1.47418C23.7566 1.36889 23.6945 1.27289 23.6155 1.19174C23.5365 1.1106 23.4422 1.04592 23.3381 1.00144C23.2339 0.956969 23.1219 0.933584 23.0087 0.932644C22.8954 0.931703 22.7831 0.953226 22.6782 0.995964C22.5733 1.0387 22.4779 1.10181 22.3976 1.18163L12.4291 10.8769Z" fill="#EBEBEB" stroke="#EBEBEB" stroke-width="0.5"/>
</svg>
