<svg width="20" height="10" viewBox="0 0 20 10" fill="none" xmlns="http://www.w3.org/2000/svg">
<path d="M2.37868 0.462338C2.29116 0.379638 2.18821 0.314986 2.07571 0.272072C1.96321 0.229157 1.84336 0.208821 1.723 0.212227C1.60264 0.215631 1.48413 0.242709 1.37423 0.291915C1.26434 0.341121 1.16521 0.411489 1.08251 0.499004C0.99981 0.58652 0.935157 0.689467 0.892243 0.801969C0.849328 0.91447 0.828993 1.03432 0.832398 1.15468C0.835803 1.27504 0.862881 1.39355 0.912086 1.50345C0.961292 1.61334 1.03166 1.71247 1.11918 1.79517L9.36918 9.58684C9.53937 9.74775 9.76471 9.8374 9.99893 9.8374C10.2331 9.8374 10.4585 9.74775 10.6287 9.58684L18.8796 1.79517C18.969 1.71302 19.0412 1.61391 19.092 1.50361C19.1429 1.39331 19.1712 1.27402 19.1755 1.15266C19.1799 1.03129 19.16 0.910286 19.1172 0.796659C19.0743 0.683032 19.0093 0.579051 18.9259 0.490758C18.8426 0.402464 18.7425 0.331616 18.6315 0.282331C18.5205 0.233045 18.4008 0.206304 18.2794 0.203659C18.158 0.201015 18.0373 0.222521 17.9243 0.266928C17.8112 0.311335 17.7082 0.377758 17.621 0.462338L9.99893 7.66L2.37868 0.462338Z" fill="white"/>
</svg>
