<svg width="29" height="28" viewBox="0 0 29 28" fill="none" xmlns="http://www.w3.org/2000/svg">
<path fill-rule="evenodd" clip-rule="evenodd" d="M10.9863 2.51597C8.70609 3.23906 6.69265 4.62436 5.20233 6.4955C3.712 8.36664 2.81223 10.639 2.61756 13.0231H8.45198C8.49495 11.5958 8.62779 10.1893 8.84919 8.85569C9.11877 7.22258 9.51988 5.71709 10.0343 4.42778C10.2947 3.76372 10.6133 3.12397 10.9863 2.51597ZM14.625 -0.00012207C12.7865 -0.000122098 10.966 0.361999 9.26743 1.06556C7.56887 1.76913 6.02553 2.80036 4.7255 4.10038C3.42548 5.4004 2.39425 6.94375 1.69069 8.64231C0.987121 10.3409 0.625 12.1614 0.625 13.9999C0.625 15.8384 0.987121 17.6589 1.69069 19.3574C2.39425 21.056 3.42548 22.5994 4.7255 23.8994C6.02553 25.1994 7.56887 26.2306 9.26743 26.9342C10.966 27.6378 12.7865 27.9999 14.625 27.9999C18.338 27.9999 21.899 26.5249 24.5245 23.8994C27.15 21.2739 28.625 17.7129 28.625 13.9999C28.625 10.2868 27.15 6.72589 24.5245 4.10038C21.899 1.47487 18.338 -0.000122015 14.625 -0.00012207ZM14.625 1.95337C14.2851 1.95337 13.8449 2.11746 13.3344 2.6462C12.8187 3.18016 12.3043 4.01495 11.8484 5.15318C11.3965 6.2849 11.028 7.64974 10.7753 9.17606C10.5735 10.4002 10.4497 11.6987 10.4081 13.0231H18.8419C18.8045 11.7341 18.6818 10.4489 18.4747 9.17606C18.222 7.64974 17.8535 6.2849 17.4016 5.15318C16.9457 4.01495 16.4313 3.18016 15.9169 2.6462C15.4051 2.11746 14.9662 1.95337 14.625 1.95337ZM20.798 13.0231C20.7591 11.6267 20.6264 10.2344 20.4008 8.85569C20.1312 7.22258 19.7301 5.71709 19.2157 4.42778C18.9549 3.76366 18.6359 3.12389 18.2624 2.51597C20.1039 3.09832 21.7781 4.11544 23.1435 5.48137C25.1637 7.50211 26.3998 10.1751 26.6311 13.0231H20.798ZM18.8419 14.9766H10.4081C10.4484 16.3011 10.5735 17.5995 10.7753 18.8237C11.028 20.35 11.3965 21.7149 11.8484 22.8466C12.3043 23.9848 12.8187 24.8196 13.3331 25.3536C13.8449 25.8823 14.2838 26.0464 14.625 26.0464C14.9649 26.0464 15.4051 25.8823 15.9156 25.3536C16.4313 24.8196 16.9457 23.9848 17.4016 22.8466C17.8535 21.7149 18.222 20.35 18.4747 18.8237C18.6765 17.5995 18.8003 16.3011 18.8419 14.9766ZM18.2637 25.4838C18.6153 24.9186 18.9344 24.2739 19.2144 23.572C19.7301 22.2827 20.1312 20.7772 20.4008 19.1441C20.6259 17.7653 20.7582 16.3731 20.7967 14.9766H26.6311C26.4371 17.361 25.5376 19.6337 24.0472 21.5049C22.5568 23.3762 20.5443 24.7613 18.2637 25.4838ZM10.985 25.4838C10.6124 24.8757 10.2943 24.236 10.0343 23.572C9.51858 22.2827 9.11747 20.7772 8.84788 19.1441C8.62278 17.7653 8.49051 16.3731 8.45198 14.9766H2.61756C2.81145 17.3609 3.71078 19.6334 5.20096 21.5046C6.69113 23.3759 8.70467 24.7611 10.985 25.4838Z" fill="white"/>
</svg>
