<svg width="127" height="32" viewBox="0 0 127 32" fill="none" xmlns="http://www.w3.org/2000/svg">
<path fill-rule="evenodd" clip-rule="evenodd" d="M121.68 10.8035C121.845 10.8036 122.004 10.8694 122.121 10.9865C122.238 11.1037 122.304 11.2625 122.304 11.4281L122.304 18.4992C122.307 18.583 122.293 18.6667 122.263 18.745C122.233 18.8234 122.188 18.8949 122.129 18.9553C122.071 19.0157 122.001 19.0637 121.924 19.0965C121.847 19.1293 121.764 19.1462 121.68 19.1462C121.596 19.1462 121.513 19.1293 121.435 19.0965C121.358 19.0637 121.288 19.0157 121.23 18.9553C121.172 18.8949 121.126 18.8234 121.096 18.745C121.066 18.6667 121.052 18.583 121.055 18.4992L121.055 12.9366L112.694 21.2981C112.576 21.4153 112.417 21.4812 112.252 21.4812C112.086 21.4812 111.927 21.4153 111.81 21.2981C111.693 21.1809 111.627 21.022 111.627 20.8562C111.627 20.6904 111.693 20.5315 111.81 20.4142L120.171 12.0527L114.609 12.0527C114.525 12.0557 114.441 12.0417 114.363 12.0117C114.284 11.9816 114.213 11.9361 114.153 11.8778C114.092 11.8195 114.044 11.7496 114.011 11.6724C113.979 11.5951 113.962 11.512 113.962 11.4281C113.962 11.3442 113.979 11.2611 114.011 11.1838C114.044 11.1066 114.092 11.0367 114.153 10.9784C114.213 10.9201 114.284 10.8746 114.363 10.8445C114.441 10.8145 114.525 10.8005 114.609 10.8035L121.68 10.8035Z" fill="black"/>
<path d="M56.3672 8.37109C58.7598 8.37109 60.5273 10.3633 60.8398 13.5859H64.1992V7.08203H66.3477V24.7578H64.1992V15.3438H60.8594C60.625 18.752 58.8281 20.8516 56.3672 20.8516C53.7109 20.8516 51.8359 18.4492 51.8359 14.6016C51.8359 10.793 53.7109 8.37109 56.3672 8.37109ZM56.3672 10.3242C54.9023 10.3242 53.9062 11.9062 53.9258 14.6016C53.9062 17.3164 54.9023 18.8984 56.3672 18.8984C57.832 18.8984 58.8086 17.3164 58.8281 14.6016C58.8086 11.9062 57.832 10.3242 56.3672 10.3242ZM76.8555 7.25781C80.8789 7.25781 83.2031 8.33203 83.2227 10.2852C83.2031 12.2578 80.8789 13.3125 76.8555 13.332C72.832 13.3125 70.4883 12.2578 70.4883 10.2852C70.4883 8.33203 72.832 7.25781 76.8555 7.25781ZM76.8555 8.87891C74.1602 8.87891 72.7539 9.36719 72.7734 10.2852C72.7539 11.2617 74.1602 11.7109 76.8555 11.7305C79.5898 11.7109 80.9766 11.2617 80.9766 10.2852C80.9766 9.36719 79.5898 8.87891 76.8555 8.87891ZM84.9219 14.25V15.9492H77.9297V17.2969H82.9102V21.6133H72.8711V22.9219H83.3984V24.582H70.7422V20.0703H80.7812V18.8984H70.7227V17.2969H75.7617V15.9492H68.8281V14.25H84.9219ZM100.82 7.10156V17.5703H98.6328V7.10156H100.82ZM95.1562 8.13672V13.2539H89.1797V15.0898C92.207 15.0801 94.3457 15.002 96.875 14.582L97.1484 16.3398C94.3555 16.7891 91.9727 16.8672 88.5547 16.8672H87.0508V11.5938H93.0078V9.85547H87.0117V8.13672H95.1562ZM100.82 18.3906V24.5234H89.1016V18.3906H100.82ZM91.25 20.1289V22.7656H98.6914V20.1289H91.25Z" fill="black"/>
<ellipse cx="6.95703" cy="16" rx="6" ry="7" fill="black"/>
<ellipse cx="22.957" cy="16.5" rx="7" ry="5.5" fill="black"/>
<ellipse cx="39.457" cy="16" rx="6.5" ry="7" fill="black"/>
</svg>
