<svg width="31" height="30" viewBox="0 0 31 30" fill="none" xmlns="http://www.w3.org/2000/svg">
<path d="M29.707 29L20.3737 19.6667M1.70703 11.8889C1.70703 13.3188 1.98868 14.7348 2.5359 16.0559C3.08312 17.377 3.88519 18.5774 4.89631 19.5885C5.90744 20.5996 7.10782 21.4017 8.42892 21.9489C9.75002 22.4961 11.166 22.7778 12.5959 22.7778C14.0259 22.7778 15.4418 22.4961 16.7629 21.9489C18.084 21.4017 19.2844 20.5996 20.2955 19.5885C21.3067 18.5774 22.1087 17.377 22.6559 16.0559C23.2032 14.7348 23.4848 13.3188 23.4848 11.8889C23.4848 10.4589 23.2032 9.04299 22.6559 7.72189C22.1087 6.40079 21.3067 5.20041 20.2955 4.18928C19.2844 3.17815 18.084 2.37609 16.7629 1.82887C15.4418 1.28165 14.0259 1 12.5959 1C11.166 1 9.75002 1.28165 8.42892 1.82887C7.10782 2.37609 5.90744 3.17815 4.89631 4.18928C3.88519 5.20041 3.08312 6.40079 2.5359 7.72189C1.98868 9.04299 1.70703 10.4589 1.70703 11.8889Z" stroke="white" stroke-width="2" stroke-linecap="round" stroke-linejoin="round"/>
</svg>
