<svg id="Layer_1" data-name="Layer 1" xmlns="http://www.w3.org/2000/svg" viewBox="0 0 195.15 64.65"><defs><style>.cls-1{fill:#fff;}</style></defs><path class="cls-1" d="M471.71,258.85a4.55,4.55,0,0,0,.3,1.66,4.77,4.77,0,0,0,6.58,2.63l21.53-8.67s-8.18,20.74-8.5,21.51a4.81,4.81,0,0,0,2.68,6.56,4.72,4.72,0,0,0,1.65.3,4.89,4.89,0,0,0,4.6-3.53c.13-.35,10.36-28.44,10.59-29.11a8.32,8.32,0,0,0,.37-2,5.11,5.11,0,0,0-5.16-5.17,6.25,6.25,0,0,0-2,.38c-.49.16-26.86,10-29.11,10.81a4.93,4.93,0,0,0-3.5,4.62" transform="translate(-316.36 -243.04)"/><path class="cls-1" d="M422.3,274.69v-.59h-16v4.09h9.28c-2.42,7.66-11.07,12.16-11.07,12.16l2.32,3.23S422.3,287.2,422.3,274.69Z" transform="translate(-316.36 -243.04)"/><path class="cls-1" d="M417.26,301.85v-8h-5.67v9c0,2.8,2.23,4.83,5.29,4.83h17.57V303.6H419.24C417.87,303.6,417.28,303.05,417.26,301.85Z" transform="translate(-316.36 -243.04)"/><polygon class="cls-1" points="105.3 38.59 105.3 42.68 112.05 42.68 112.05 52.54 117.72 52.54 117.72 30.62 112.05 30.62 112.05 38.59 105.3 38.59"/><polygon class="cls-1" points="154.16 47.05 159.83 47.05 159.83 30.45 154.16 30.45 154.16 35.62 148.25 35.62 148.25 39.66 154.16 39.66 154.16 47.05"/><path class="cls-1" d="M343.34,293.59H321.76v9.27c0,2.8,2.23,4.83,5.29,4.83H344.6V294.86A1.28,1.28,0,0,0,343.34,293.59Zm-4.4,10h-9.52c-1.38,0-2-.55-2-1.75v-4.16h11.51Z" transform="translate(-316.36 -243.04)"/><path class="cls-1" d="M345,274.14V274H321.45v4.1H339c0,.26,0,.6,0,.93,0,3.8-.19,6.3-.29,7.32h-22.4v4.09h34.51V286.3h-7.06A50.18,50.18,0,0,0,345,274.14Z" transform="translate(-316.36 -243.04)"/><path class="cls-1" d="M380.22,295.64c4.71-1,8.19-4.55,8.19-8.74a8.13,8.13,0,0,0-2.67-5.89h6v-4.1H380.22v-3.86h-5.67v3.86H363V281h6a8.13,8.13,0,0,0-2.67,5.89c0,4.19,3.48,7.71,8.19,8.74v4.15H360.13v4.09h34.5v-4.09H380.22Zm-8-8.87a5.2,5.2,0,1,1,5.2,5.08A5.14,5.14,0,0,1,372.19,286.77Z" transform="translate(-316.36 -243.04)"/><path class="cls-1" d="M459.69,289.74h5.48c-.23-1.33-2.23-12.07-7.46-15.79h-6.33l-4.87,15.92h5.69l3.24-11.46C458.18,281.61,459.5,288.69,459.69,289.74Z" transform="translate(-316.36 -243.04)"/><path class="cls-1" d="M460.81,303.74c-1.44,0-1.7-.37-1.7-1.59v-.51H476.2V293a1.27,1.27,0,0,0-1.31-1.32H453.54v3.95h17.23v2.1H453.69v5.09c0,2.95,2.12,4.83,5.29,4.83h17.59v-3.95Z" transform="translate(-316.36 -243.04)"/></svg>