<svg width="11" height="20" viewBox="0 0 11 20" fill="none" xmlns="http://www.w3.org/2000/svg">
<path d="M10.1992 1.68626C10.2892 1.59084 10.3595 1.4786 10.4062 1.35595C10.4529 1.23329 10.475 1.10262 10.4713 0.971395C10.4676 0.84017 10.4382 0.710961 10.3846 0.591145C10.3311 0.47133 10.2546 0.363254 10.1593 0.273089C10.0641 0.182924 9.95214 0.112435 9.82975 0.0656467C9.70736 0.0188586 9.57697 -0.0033124 9.44603 0.000399767C9.31509 0.00411193 9.18616 0.0336344 9.0666 0.0872817C8.94705 0.140929 8.83921 0.21765 8.74924 0.313065L0.272592 9.30779C0.0975375 9.49335 0 9.73902 0 9.99438C0 10.2497 0.0975375 10.4954 0.272592 10.681L8.74924 19.6767C8.83861 19.7742 8.94643 19.8529 9.06643 19.9083C9.18642 19.9637 9.3162 19.9947 9.44823 19.9994C9.58027 20.0041 9.71191 19.9824 9.83553 19.9357C9.95914 19.889 10.0723 19.8181 10.1683 19.7272C10.2644 19.6363 10.3415 19.5272 10.3951 19.4062C10.4487 19.2852 10.4778 19.1547 10.4807 19.0223C10.4835 18.89 10.4601 18.7584 10.4118 18.6351C10.3635 18.5119 10.2913 18.3995 10.1992 18.3045L2.36882 9.99438L10.1992 1.68626Z" fill="white"/>
</svg>
