<svg width="11" height="20" viewBox="0 0 11 20" fill="none" xmlns="http://www.w3.org/2000/svg">
<path d="M0.761698 18.3137C0.671728 18.4092 0.601392 18.5214 0.554705 18.6441C0.508018 18.7667 0.485894 18.8974 0.489598 19.0286C0.493302 19.1598 0.522761 19.289 0.576293 19.4089C0.629824 19.5287 0.706379 19.6367 0.801588 19.7269C0.896796 19.8171 1.00879 19.8876 1.13119 19.9344C1.25358 19.9811 1.38397 20.0033 1.51491 19.9996C1.64585 19.9959 1.77478 19.9664 1.89433 19.9127C2.01389 19.8591 2.12173 19.7823 2.2117 19.6869L10.6883 10.6922C10.8634 10.5067 10.9609 10.261 10.9609 10.0056C10.9609 9.75026 10.8634 9.50458 10.6883 9.31902L2.2117 0.323299C2.12233 0.225796 2.01451 0.147058 1.89451 0.0916672C1.77452 0.0362759 1.64473 0.00533104 1.5127 0.000629425C1.38067 -0.00407219 1.24903 0.0175667 1.12541 0.0642834C1.00179 0.111002 0.888672 0.18187 0.792616 0.27277C0.69656 0.363672 0.619484 0.472795 0.565866 0.593801C0.512247 0.714806 0.483155 0.845284 0.480278 0.977652C0.477402 1.11002 0.500798 1.24164 0.549109 1.36487C0.59742 1.48811 0.669682 1.60049 0.761698 1.69549L8.59212 10.0056L0.761698 18.3137Z" fill="white"/>
</svg>
