<svg width="30" height="23" viewBox="0 0 30 23" fill="none" xmlns="http://www.w3.org/2000/svg">
<path d="M1 12.3122V10.3652C1 6.38455 1 4.39355 2.24437 3.11342C3.49012 1.83192 5.45088 1.77692 9.371 1.66555C11.2273 1.6133 13.1247 1.57617 14.75 1.57617C16.3739 1.57617 18.2714 1.6133 20.129 1.66555C24.0491 1.77692 26.0099 1.83192 27.2542 3.11342C28.5 4.39355 28.5 6.38592 28.5 10.3652V12.3108C28.5 16.2928 28.5 18.2824 27.2556 19.5639C26.0099 20.844 24.0505 20.9004 20.129 21.0104C18.2727 21.064 16.3753 21.1012 14.75 21.1012C12.9567 21.0958 11.1635 21.0655 9.371 21.0104C5.45088 20.9004 3.49012 20.8454 2.24437 19.5639C1 18.2824 1 16.2914 1 12.3122Z" stroke="white" stroke-width="2"/>
<path d="M19.25 11.3389L11.25 15.8389V6.83887L19.25 11.3389Z" stroke="white" stroke-width="2" stroke-linecap="round" stroke-linejoin="round"/>
</svg>
