<svg width="27" height="26" viewBox="0 0 27 26" fill="none" xmlns="http://www.w3.org/2000/svg">
<path d="M13.375 18.1387C14.8337 18.1387 16.2326 17.5855 17.2641 16.601C18.2955 15.6164 18.875 14.2811 18.875 12.8887C18.875 11.4963 18.2955 10.1609 17.2641 9.17636C16.2326 8.1918 14.8337 7.63867 13.375 7.63867C11.9163 7.63867 10.5174 8.1918 9.48591 9.17636C8.45446 10.1609 7.875 11.4963 7.875 12.8887C7.875 14.2811 8.45446 15.6164 9.48591 16.601C10.5174 17.5855 11.9163 18.1387 13.375 18.1387Z" stroke="white" stroke-width="2" stroke-linecap="round" stroke-linejoin="round"/>
<path d="M1 18.1387V7.63867C1 5.89819 1.72433 4.22899 3.01364 2.99828C4.30295 1.76758 6.05164 1.07617 7.875 1.07617H18.875C20.6984 1.07617 22.447 1.76758 23.7364 2.99828C25.0257 4.22899 25.75 5.89819 25.75 7.63867V18.1387C25.75 19.8792 25.0257 21.5484 23.7364 22.7791C22.447 24.0098 20.6984 24.7012 18.875 24.7012H7.875C6.05164 24.7012 4.30295 24.0098 3.01364 22.7791C1.72433 21.5484 1 19.8792 1 18.1387Z" stroke="white" stroke-width="2"/>
<path d="M20.9375 5.68358L20.9513 5.66846" stroke="white" stroke-width="2" stroke-linecap="round" stroke-linejoin="round"/>
</svg>
